<?xml version="1.0" encoding="UTF-8" standalone="no"?>
<!DOCTYPE svg PUBLIC "-//W3C//DTD SVG 1.1//EN"
 "http://www.w3.org/Graphics/SVG/1.1/DTD/svg11.dtd">
<!-- Generated by graphviz version 2.36.0 (20140111.2315)
 -->
<!-- Title: G Pages: 1 -->
<svg width="539pt" height="736pt"
 viewBox="0.00 0.00 539.00 736.00" xmlns="http://www.w3.org/2000/svg" xmlns:xlink="http://www.w3.org/1999/xlink">
<g id="graph0" class="graph" transform="scale(1 1) rotate(0) translate(4 732)">
<title>G</title>
<polygon fill="white" stroke="none" points="-4,4 -4,-732 535,-732 535,4 -4,4"/>
<!-- n1 -->
<g id="node1" class="node"><title>n1</title>
<g id="a_node1"><a xlink:title="[train.lua]:108">
<ellipse fill="none" stroke="black" cx="265" cy="-117" rx="84.2187" ry="26.7407"/>
<text text-anchor="middle" x="265" y="-120.8" font-family="Times,serif" font-size="14.00">Node1</text>
<text text-anchor="middle" x="265" y="-105.8" font-family="Times,serif" font-size="14.00">module = nn.Tanh</text>
</a>
</g>
</g>
<!-- n2 -->
<g id="node2" class="node"><title>n2</title>
<g id="a_node2"><a xlink:title="[[C]]:&#45;1">
<ellipse fill="none" stroke="black" cx="265" cy="-27" rx="51.99" ry="26.7407"/>
<text text-anchor="middle" x="265" y="-30.8" font-family="Times,serif" font-size="14.00">Node2</text>
<text text-anchor="middle" x="265" y="-15.8" font-family="Times,serif" font-size="14.00">input = {}</text>
</a>
</g>
</g>
<!-- n1&#45;&gt;n2 -->
<g id="edge1" class="edge"><title>n1&#45;&gt;n2</title>
<path fill="none" stroke="black" d="M265,-90.0731C265,-81.9993 265,-72.9428 265,-64.2961"/>
<polygon fill="black" stroke="black" points="268.5,-64.0457 265,-54.0457 261.5,-64.0458 268.5,-64.0457"/>
</g>
<!-- n3 -->
<g id="node3" class="node"><title>n3</title>
<g id="a_node3"><a xlink:title="[train.lua]:107">
<ellipse fill="none" stroke="black" cx="265" cy="-218" rx="124.176" ry="37.4533"/>
<text text-anchor="middle" x="265" y="-229.3" font-family="Times,serif" font-size="14.00">Node3</text>
<text text-anchor="start" x="185" y="-214.3" font-family="Times,serif" font-size="14.00">module = nn.CAddTable</text>
<text text-anchor="middle" x="265" y="-199.3" font-family="Times,serif" font-size="14.00">mapindex = {Node4,Node5}</text>
</a>
</g>
</g>
<!-- n3&#45;&gt;n1 -->
<g id="edge2" class="edge"><title>n3&#45;&gt;n1</title>
<path fill="none" stroke="black" d="M265,-180.417C265,-171.802 265,-162.626 265,-154.035"/>
<polygon fill="black" stroke="black" points="268.5,-153.924 265,-143.924 261.5,-153.924 268.5,-153.924"/>
</g>
<!-- n4 -->
<g id="node4" class="node"><title>n4</title>
<g id="a_node4"><a xlink:title="[train.lua]:104">
<ellipse fill="none" stroke="black" cx="128" cy="-319" rx="128.54" ry="26.7407"/>
<text text-anchor="middle" x="128" y="-322.8" font-family="Times,serif" font-size="14.00">Node4</text>
<text text-anchor="middle" x="128" y="-307.8" font-family="Times,serif" font-size="14.00">module = nn.Linear(21 &#45;&gt; 10)</text>
</a>
</g>
</g>
<!-- n4&#45;&gt;n3 -->
<g id="edge3" class="edge"><title>n4&#45;&gt;n3</title>
<path fill="none" stroke="black" d="M162.571,-293.018C176.949,-282.628 193.995,-270.31 210.014,-258.735"/>
<polygon fill="black" stroke="black" points="212.222,-261.457 218.277,-252.763 208.122,-255.783 212.222,-261.457"/>
</g>
<!-- n5 -->
<g id="node5" class="node"><title>n5</title>
<g id="a_node5"><a xlink:title="[train.lua]:105">
<ellipse fill="none" stroke="black" cx="403" cy="-319" rx="128.54" ry="26.7407"/>
<text text-anchor="middle" x="403" y="-322.8" font-family="Times,serif" font-size="14.00">Node5</text>
<text text-anchor="middle" x="403" y="-307.8" font-family="Times,serif" font-size="14.00">module = nn.Linear(10 &#45;&gt; 10)</text>
</a>
</g>
</g>
<!-- n5&#45;&gt;n3 -->
<g id="edge4" class="edge"><title>n5&#45;&gt;n3</title>
<path fill="none" stroke="black" d="M368.177,-293.018C353.694,-282.628 336.524,-270.31 320.388,-258.735"/>
<polygon fill="black" stroke="black" points="322.229,-255.748 312.064,-252.763 318.149,-261.436 322.229,-255.748"/>
</g>
<!-- n6 -->
<g id="node6" class="node"><title>n6</title>
<g id="a_node6"><a xlink:title="[train.lua]:101">
<ellipse fill="none" stroke="black" cx="145" cy="-409" rx="94.0678" ry="26.7407"/>
<text text-anchor="middle" x="145" y="-412.8" font-family="Times,serif" font-size="14.00">Node6</text>
<text text-anchor="middle" x="145" y="-397.8" font-family="Times,serif" font-size="14.00">module = nn.Identity</text>
</a>
</g>
</g>
<!-- n6&#45;&gt;n4 -->
<g id="edge5" class="edge"><title>n6&#45;&gt;n4</title>
<path fill="none" stroke="black" d="M139.991,-382.073C138.415,-373.911 136.644,-364.744 134.957,-356.011"/>
<polygon fill="black" stroke="black" points="138.365,-355.2 133.032,-346.046 131.492,-356.528 138.365,-355.2"/>
</g>
<!-- n7 -->
<g id="node7" class="node"><title>n7</title>
<g id="a_node7"><a xlink:title="[train.lua]:102">
<ellipse fill="none" stroke="black" cx="385" cy="-409" rx="94.0678" ry="26.7407"/>
<text text-anchor="middle" x="385" y="-412.8" font-family="Times,serif" font-size="14.00">Node7</text>
<text text-anchor="middle" x="385" y="-397.8" font-family="Times,serif" font-size="14.00">module = nn.Identity</text>
</a>
</g>
</g>
<!-- n7&#45;&gt;n5 -->
<g id="edge6" class="edge"><title>n7&#45;&gt;n5</title>
<path fill="none" stroke="black" d="M390.303,-382.073C391.973,-373.911 393.848,-364.744 395.634,-356.011"/>
<polygon fill="black" stroke="black" points="399.097,-356.544 397.672,-346.046 392.239,-355.141 399.097,-356.544"/>
</g>
<!-- n8 -->
<g id="node8" class="node"><title>n8</title>
<g id="a_node8"><a xlink:title="[[C]]:&#45;1&#45;2">
<ellipse fill="none" stroke="black" cx="157" cy="-510" rx="70.5656" ry="37.4533"/>
<text text-anchor="middle" x="157" y="-521.3" font-family="Times,serif" font-size="14.00">Node8</text>
<text text-anchor="start" x="115" y="-506.3" font-family="Times,serif" font-size="14.00">input = {}</text>
<text text-anchor="middle" x="157" y="-491.3" font-family="Times,serif" font-size="14.00">selectindex = 2</text>
</a>
</g>
</g>
<!-- n8&#45;&gt;n6 -->
<g id="edge7" class="edge"><title>n8&#45;&gt;n6</title>
<path fill="none" stroke="black" d="M152.566,-472.417C151.521,-463.802 150.409,-454.626 149.368,-446.035"/>
<polygon fill="black" stroke="black" points="152.82,-445.43 148.142,-435.924 145.871,-446.273 152.82,-445.43"/>
</g>
<!-- n9 -->
<g id="node9" class="node"><title>n9</title>
<g id="a_node9"><a xlink:title="[[C]]:&#45;1&#45;1">
<ellipse fill="none" stroke="black" cx="339" cy="-510" rx="70.5656" ry="37.4533"/>
<text text-anchor="middle" x="339" y="-521.3" font-family="Times,serif" font-size="14.00">Node9</text>
<text text-anchor="start" x="297" y="-506.3" font-family="Times,serif" font-size="14.00">input = {}</text>
<text text-anchor="middle" x="339" y="-491.3" font-family="Times,serif" font-size="14.00">selectindex = 1</text>
</a>
</g>
</g>
<!-- n9&#45;&gt;n7 -->
<g id="edge8" class="edge"><title>n9&#45;&gt;n7</title>
<path fill="none" stroke="black" d="M355.477,-473.538C359.763,-464.314 364.378,-454.381 368.657,-445.173"/>
<polygon fill="black" stroke="black" points="371.927,-446.442 372.967,-435.898 365.579,-443.492 371.927,-446.442"/>
</g>
<!-- n10 -->
<g id="node10" class="node"><title>n10</title>
<g id="a_node10"><a xlink:title="[[C]]:&#45;1&#45;mnode">
<ellipse fill="none" stroke="black" cx="236" cy="-611" rx="80.415" ry="26.7407"/>
<text text-anchor="middle" x="236" y="-614.8" font-family="Times,serif" font-size="14.00">Node10</text>
<text text-anchor="middle" x="236" y="-599.8" font-family="Times,serif" font-size="14.00">nSplitOutputs = 2</text>
</a>
</g>
</g>
<!-- n10&#45;&gt;n8 -->
<g id="edge9" class="edge"><title>n10&#45;&gt;n8</title>
<path fill="none" stroke="black" d="M215.861,-584.762C208.062,-574.989 198.926,-563.54 190.209,-552.616"/>
<polygon fill="black" stroke="black" points="192.934,-550.42 183.961,-544.787 187.463,-554.786 192.934,-550.42"/>
</g>
<!-- n10&#45;&gt;n9 -->
<g id="edge10" class="edge"><title>n10&#45;&gt;n9</title>
<path fill="none" stroke="black" d="M261.726,-585.273C272.68,-574.744 285.731,-562.201 297.96,-550.446"/>
<polygon fill="black" stroke="black" points="300.658,-552.708 305.442,-543.255 295.807,-547.661 300.658,-552.708"/>
</g>
<!-- n11 -->
<g id="node11" class="node"><title>n11</title>
<g id="a_node11"><a xlink:title="[[C]]:&#45;1">
<ellipse fill="none" stroke="black" cx="236" cy="-701" rx="51.99" ry="26.7407"/>
<text text-anchor="middle" x="236" y="-704.8" font-family="Times,serif" font-size="14.00">Node11</text>
<text text-anchor="middle" x="236" y="-689.8" font-family="Times,serif" font-size="14.00">input = {}</text>
</a>
</g>
</g>
<!-- n11&#45;&gt;n10 -->
<g id="edge11" class="edge"><title>n11&#45;&gt;n10</title>
<path fill="none" stroke="black" d="M236,-674.073C236,-665.999 236,-656.943 236,-648.296"/>
<polygon fill="black" stroke="black" points="239.5,-648.046 236,-638.046 232.5,-648.046 239.5,-648.046"/>
</g>
</g>
</svg>
