<?xml version="1.0" encoding="UTF-8" standalone="no"?>
<!DOCTYPE svg PUBLIC "-//W3C//DTD SVG 1.1//EN"
 "http://www.w3.org/Graphics/SVG/1.1/DTD/svg11.dtd">
<!-- Generated by graphviz version 2.36.0 (20140111.2315)
 -->
<!-- Title: G Pages: 1 -->
<svg width="998pt" height="1138pt"
 viewBox="0.00 0.00 998.00 1138.00" xmlns="http://www.w3.org/2000/svg" xmlns:xlink="http://www.w3.org/1999/xlink">
<g id="graph0" class="graph" transform="scale(1 1) rotate(0) translate(4 1134)">
<title>G</title>
<polygon fill="white" stroke="none" points="-4,4 -4,-1134 994,-1134 994,4 -4,4"/>
<!-- n1 -->
<g id="node1" class="node"><title>n1</title>
<g id="a_node1"><a xlink:title="[train.lua]:141">
<ellipse fill="none" stroke="black" cx="191" cy="-139" rx="98.4924" ry="26.7407"/>
<text text-anchor="middle" x="191" y="-142.8" font-family="Times,serif" font-size="14.00">Node1</text>
<text text-anchor="middle" x="191" y="-127.8" font-family="Times,serif" font-size="14.00">module = nn.gModule</text>
</a>
</g>
</g>
<!-- n2 -->
<g id="node2" class="node"><title>n2</title>
<g id="a_node2"><a xlink:title="[[C]]:&#45;1">
<ellipse fill="none" stroke="black" cx="418" cy="-38" rx="208.395" ry="37.4533"/>
<text text-anchor="middle" x="418" y="-49.3" font-family="Times,serif" font-size="14.00">Node2</text>
<text text-anchor="start" x="278.5" y="-34.3" font-family="Times,serif" font-size="14.00">input = {}</text>
<text text-anchor="middle" x="418" y="-19.3" font-family="Times,serif" font-size="14.00">mapindex = {Node1,Node3,Node4,Node5,Node6}</text>
</a>
</g>
</g>
<!-- n1&#45;&gt;n2 -->
<g id="edge1" class="edge"><title>n1&#45;&gt;n2</title>
<path fill="none" stroke="black" d="M241.661,-115.906C267.949,-104.441 300.806,-90.1111 331.009,-76.9386"/>
<polygon fill="black" stroke="black" points="332.521,-80.098 340.288,-72.8922 329.722,-73.6817 332.521,-80.098"/>
</g>
<!-- n3 -->
<g id="node3" class="node"><title>n3</title>
<g id="a_node3"><a xlink:title="[train.lua]:141">
<ellipse fill="none" stroke="black" cx="324" cy="-464" rx="98.4924" ry="26.7407"/>
<text text-anchor="middle" x="324" y="-467.8" font-family="Times,serif" font-size="14.00">Node3</text>
<text text-anchor="middle" x="324" y="-452.8" font-family="Times,serif" font-size="14.00">module = nn.gModule</text>
</a>
</g>
</g>
<!-- n3&#45;&gt;n2 -->
<g id="edge2" class="edge"><title>n3&#45;&gt;n2</title>
<path fill="none" stroke="black" d="M329.739,-437.115C345.206,-367.345 387.927,-174.65 407.705,-85.4367"/>
<polygon fill="black" stroke="black" points="411.139,-86.1166 409.887,-75.596 404.305,-84.6014 411.139,-86.1166"/>
</g>
<!-- n4 -->
<g id="node4" class="node"><title>n4</title>
<g id="a_node4"><a xlink:title="[train.lua]:141">
<ellipse fill="none" stroke="black" cx="468" cy="-352" rx="98.4924" ry="26.7407"/>
<text text-anchor="middle" x="468" y="-355.8" font-family="Times,serif" font-size="14.00">Node4</text>
<text text-anchor="middle" x="468" y="-340.8" font-family="Times,serif" font-size="14.00">module = nn.gModule</text>
</a>
</g>
</g>
<!-- n4&#45;&gt;n2 -->
<g id="edge3" class="edge"><title>n4&#45;&gt;n2</title>
<path fill="none" stroke="black" d="M454.699,-325.346C448.228,-311.659 441,-294.315 437,-278 420.977,-212.655 417.614,-134.546 417.311,-85.8421"/>
<polygon fill="black" stroke="black" points="420.81,-85.6056 417.29,-75.6128 413.81,-85.62 420.81,-85.6056"/>
</g>
<!-- n5 -->
<g id="node5" class="node"><title>n5</title>
<g id="a_node5"><a xlink:title="[train.lua]:141">
<ellipse fill="none" stroke="black" cx="545" cy="-240" rx="98.4924" ry="26.7407"/>
<text text-anchor="middle" x="545" y="-243.8" font-family="Times,serif" font-size="14.00">Node5</text>
<text text-anchor="middle" x="545" y="-228.8" font-family="Times,serif" font-size="14.00">module = nn.gModule</text>
</a>
</g>
</g>
<!-- n5&#45;&gt;n2 -->
<g id="edge4" class="edge"><title>n5&#45;&gt;n2</title>
<path fill="none" stroke="black" d="M528.657,-213.263C507.936,-180.631 471.866,-123.828 446.554,-83.9677"/>
<polygon fill="black" stroke="black" points="449.482,-82.0488 441.167,-75.4832 443.573,-85.8013 449.482,-82.0488"/>
</g>
<!-- n6 -->
<g id="node6" class="node"><title>n6</title>
<g id="a_node6"><a xlink:title="[train.lua]:141">
<ellipse fill="none" stroke="black" cx="733" cy="-139" rx="98.4924" ry="26.7407"/>
<text text-anchor="middle" x="733" y="-142.8" font-family="Times,serif" font-size="14.00">Node6</text>
<text text-anchor="middle" x="733" y="-127.8" font-family="Times,serif" font-size="14.00">module = nn.gModule</text>
</a>
</g>
</g>
<!-- n6&#45;&gt;n2 -->
<g id="edge5" class="edge"><title>n6&#45;&gt;n2</title>
<path fill="none" stroke="black" d="M670.012,-118.204C629.7,-105.534 576.278,-88.7446 528.999,-73.8853"/>
<polygon fill="black" stroke="black" points="529.91,-70.5029 519.32,-70.8436 527.811,-77.1809 529.91,-70.5029"/>
</g>
<!-- n7 -->
<g id="node7" class="node"><title>n7</title>
<g id="a_node7"><a xlink:title="[train.lua]:137">
<ellipse fill="none" stroke="black" cx="179" cy="-688" rx="133.465" ry="37.4533"/>
<text text-anchor="middle" x="179" y="-699.3" font-family="Times,serif" font-size="14.00">Node7</text>
<text text-anchor="start" x="92.5" y="-684.3" font-family="Times,serif" font-size="14.00">module = nn.gModule</text>
<text text-anchor="middle" x="179" y="-669.3" font-family="Times,serif" font-size="14.00">mapindex = {Node12,Node13}</text>
</a>
</g>
</g>
<!-- n7&#45;&gt;n1 -->
<g id="edge6" class="edge"><title>n7&#45;&gt;n1</title>
<path fill="none" stroke="black" d="M176.612,-650.485C173.945,-606.506 170,-530.382 170,-465 170,-465 170,-465 170,-351 170,-289.235 179.02,-217.797 185.237,-175.897"/>
<polygon fill="black" stroke="black" points="188.714,-176.315 186.75,-165.904 181.793,-175.267 188.714,-176.315"/>
</g>
<!-- n8 -->
<g id="node8" class="node"><title>n8</title>
<g id="a_node8"><a xlink:title="[train.lua]:139">
<ellipse fill="none" stroke="black" cx="327" cy="-576" rx="128.54" ry="37.4533"/>
<text text-anchor="middle" x="327" y="-587.3" font-family="Times,serif" font-size="14.00">Node8</text>
<text text-anchor="start" x="244" y="-572.3" font-family="Times,serif" font-size="14.00">module = nn.gModule</text>
<text text-anchor="middle" x="327" y="-557.3" font-family="Times,serif" font-size="14.00">mapindex = {Node7,Node14}</text>
</a>
</g>
</g>
<!-- n7&#45;&gt;n8 -->
<g id="edge13" class="edge"><title>n7&#45;&gt;n8</title>
<path fill="none" stroke="black" d="M225.017,-652.798C240.191,-641.52 257.207,-628.873 272.926,-617.19"/>
<polygon fill="black" stroke="black" points="275.073,-619.955 281.012,-611.181 270.898,-614.337 275.073,-619.955"/>
</g>
<!-- n8&#45;&gt;n3 -->
<g id="edge7" class="edge"><title>n8&#45;&gt;n3</title>
<path fill="none" stroke="black" d="M326.001,-538.372C325.674,-526.384 325.311,-513.08 324.985,-501.129"/>
<polygon fill="black" stroke="black" points="328.482,-500.943 324.71,-491.042 321.484,-501.134 328.482,-500.943"/>
</g>
<!-- n9 -->
<g id="node9" class="node"><title>n9</title>
<g id="a_node9"><a xlink:title="[train.lua]:139">
<ellipse fill="none" stroke="black" cx="570" cy="-464" rx="128.54" ry="37.4533"/>
<text text-anchor="middle" x="570" y="-475.3" font-family="Times,serif" font-size="14.00">Node9</text>
<text text-anchor="start" x="487" y="-460.3" font-family="Times,serif" font-size="14.00">module = nn.gModule</text>
<text text-anchor="middle" x="570" y="-445.3" font-family="Times,serif" font-size="14.00">mapindex = {Node8,Node15}</text>
</a>
</g>
</g>
<!-- n8&#45;&gt;n9 -->
<g id="edge15" class="edge"><title>n8&#45;&gt;n9</title>
<path fill="none" stroke="black" d="M395.012,-544.213C425.299,-530.503 461.125,-514.285 492.448,-500.106"/>
<polygon fill="black" stroke="black" points="493.916,-503.283 501.583,-495.971 491.029,-496.906 493.916,-503.283"/>
</g>
<!-- n9&#45;&gt;n4 -->
<g id="edge8" class="edge"><title>n9&#45;&gt;n4</title>
<path fill="none" stroke="black" d="M537.165,-427.59C524.702,-414.149 510.574,-398.914 498.351,-385.731"/>
<polygon fill="black" stroke="black" points="500.767,-383.189 491.401,-378.236 495.634,-387.949 500.767,-383.189"/>
</g>
<!-- n10 -->
<g id="node10" class="node"><title>n10</title>
<g id="a_node10"><a xlink:title="[train.lua]:139">
<ellipse fill="none" stroke="black" cx="735" cy="-352" rx="128.54" ry="37.4533"/>
<text text-anchor="middle" x="735" y="-363.3" font-family="Times,serif" font-size="14.00">Node10</text>
<text text-anchor="start" x="652" y="-348.3" font-family="Times,serif" font-size="14.00">module = nn.gModule</text>
<text text-anchor="middle" x="735" y="-333.3" font-family="Times,serif" font-size="14.00">mapindex = {Node9,Node16}</text>
</a>
</g>
</g>
<!-- n9&#45;&gt;n10 -->
<g id="edge17" class="edge"><title>n9&#45;&gt;n10</title>
<path fill="none" stroke="black" d="M620.402,-429.399C637.913,-417.725 657.709,-404.527 675.861,-392.426"/>
<polygon fill="black" stroke="black" points="678.244,-395.044 684.623,-386.585 674.361,-389.22 678.244,-395.044"/>
</g>
<!-- n10&#45;&gt;n5 -->
<g id="edge9" class="edge"><title>n10&#45;&gt;n5</title>
<path fill="none" stroke="black" d="M678.508,-318.294C651.795,-302.829 620.191,-284.532 594.44,-269.623"/>
<polygon fill="black" stroke="black" points="596.001,-266.483 585.593,-264.501 592.494,-272.541 596.001,-266.483"/>
</g>
<!-- n11 -->
<g id="node11" class="node"><title>n11</title>
<g id="a_node11"><a xlink:title="[train.lua]:139">
<ellipse fill="none" stroke="black" cx="796" cy="-240" rx="133.465" ry="37.4533"/>
<text text-anchor="middle" x="796" y="-251.3" font-family="Times,serif" font-size="14.00">Node11</text>
<text text-anchor="start" x="709.5" y="-236.3" font-family="Times,serif" font-size="14.00">module = nn.gModule</text>
<text text-anchor="middle" x="796" y="-221.3" font-family="Times,serif" font-size="14.00">mapindex = {Node10,Node17}</text>
</a>
</g>
</g>
<!-- n10&#45;&gt;n11 -->
<g id="edge19" class="edge"><title>n10&#45;&gt;n11</title>
<path fill="none" stroke="black" d="M755.143,-314.677C760.192,-305.572 765.671,-295.692 770.928,-286.212"/>
<polygon fill="black" stroke="black" points="774.09,-287.728 775.878,-277.285 767.968,-284.333 774.09,-287.728"/>
</g>
<!-- n11&#45;&gt;n6 -->
<g id="edge10" class="edge"><title>n11&#45;&gt;n6</title>
<path fill="none" stroke="black" d="M773.077,-202.979C767.105,-193.594 760.688,-183.509 754.777,-174.221"/>
<polygon fill="black" stroke="black" points="757.617,-172.165 749.296,-165.608 751.712,-175.923 757.617,-172.165"/>
</g>
<!-- n12 -->
<g id="node12" class="node"><title>n12</title>
<g id="a_node12"><a xlink:title="[train.lua]:132">
<ellipse fill="none" stroke="black" cx="94" cy="-800" rx="94.0678" ry="26.7407"/>
<text text-anchor="middle" x="94" y="-803.8" font-family="Times,serif" font-size="14.00">Node12</text>
<text text-anchor="middle" x="94" y="-788.8" font-family="Times,serif" font-size="14.00">module = nn.Identity</text>
</a>
</g>
</g>
<!-- n12&#45;&gt;n7 -->
<g id="edge11" class="edge"><title>n12&#45;&gt;n7</title>
<path fill="none" stroke="black" d="M113.714,-773.487C123.062,-761.391 134.497,-746.593 145.17,-732.78"/>
<polygon fill="black" stroke="black" points="147.999,-734.843 151.344,-724.79 142.46,-730.563 147.999,-734.843"/>
</g>
<!-- n13 -->
<g id="node13" class="node"><title>n13</title>
<g id="a_node13"><a xlink:title="[train.lua]:135">
<ellipse fill="none" stroke="black" cx="300" cy="-800" rx="94.0678" ry="26.7407"/>
<text text-anchor="middle" x="300" y="-803.8" font-family="Times,serif" font-size="14.00">Node13</text>
<text text-anchor="middle" x="300" y="-788.8" font-family="Times,serif" font-size="14.00">module = nn.Identity</text>
</a>
</g>
</g>
<!-- n13&#45;&gt;n7 -->
<g id="edge12" class="edge"><title>n13&#45;&gt;n7</title>
<path fill="none" stroke="black" d="M272.543,-774.039C258.641,-761.401 241.382,-745.711 225.488,-731.262"/>
<polygon fill="black" stroke="black" points="227.569,-728.424 217.816,-724.287 222.861,-733.604 227.569,-728.424"/>
</g>
<!-- n14 -->
<g id="node14" class="node"><title>n14</title>
<g id="a_node14"><a xlink:title="[train.lua]:135">
<ellipse fill="none" stroke="black" cx="435" cy="-688" rx="94.0678" ry="26.7407"/>
<text text-anchor="middle" x="435" y="-691.8" font-family="Times,serif" font-size="14.00">Node14</text>
<text text-anchor="middle" x="435" y="-676.8" font-family="Times,serif" font-size="14.00">module = nn.Identity</text>
</a>
</g>
</g>
<!-- n14&#45;&gt;n8 -->
<g id="edge14" class="edge"><title>n14&#45;&gt;n8</title>
<path fill="none" stroke="black" d="M410.493,-662.039C398.198,-649.516 382.96,-633.996 368.881,-619.656"/>
<polygon fill="black" stroke="black" points="371.149,-616.971 361.645,-612.287 366.154,-621.875 371.149,-616.971"/>
</g>
<!-- n15 -->
<g id="node15" class="node"><title>n15</title>
<g id="a_node15"><a xlink:title="[train.lua]:135">
<ellipse fill="none" stroke="black" cx="568" cy="-576" rx="94.0678" ry="26.7407"/>
<text text-anchor="middle" x="568" y="-579.8" font-family="Times,serif" font-size="14.00">Node15</text>
<text text-anchor="middle" x="568" y="-564.8" font-family="Times,serif" font-size="14.00">module = nn.Identity</text>
</a>
</g>
</g>
<!-- n15&#45;&gt;n9 -->
<g id="edge16" class="edge"><title>n15&#45;&gt;n9</title>
<path fill="none" stroke="black" d="M568.474,-548.932C568.676,-537.802 568.919,-524.464 569.15,-511.731"/>
<polygon fill="black" stroke="black" points="572.65,-511.764 569.333,-501.702 565.651,-511.637 572.65,-511.764"/>
</g>
<!-- n16 -->
<g id="node16" class="node"><title>n16</title>
<g id="a_node16"><a xlink:title="[train.lua]:135">
<ellipse fill="none" stroke="black" cx="774" cy="-576" rx="94.0678" ry="26.7407"/>
<text text-anchor="middle" x="774" y="-579.8" font-family="Times,serif" font-size="14.00">Node16</text>
<text text-anchor="middle" x="774" y="-564.8" font-family="Times,serif" font-size="14.00">module = nn.Identity</text>
</a>
</g>
</g>
<!-- n16&#45;&gt;n10 -->
<g id="edge18" class="edge"><title>n16&#45;&gt;n10</title>
<path fill="none" stroke="black" d="M769.45,-549.099C763.024,-512.52 751.184,-445.127 743.202,-399.686"/>
<polygon fill="black" stroke="black" points="746.638,-399.019 741.461,-389.776 739.744,-400.23 746.638,-399.019"/>
</g>
<!-- n17 -->
<g id="node17" class="node"><title>n17</title>
<g id="a_node17"><a xlink:title="[train.lua]:135">
<ellipse fill="none" stroke="black" cx="895" cy="-688" rx="94.0678" ry="26.7407"/>
<text text-anchor="middle" x="895" y="-691.8" font-family="Times,serif" font-size="14.00">Node17</text>
<text text-anchor="middle" x="895" y="-676.8" font-family="Times,serif" font-size="14.00">module = nn.Identity</text>
</a>
</g>
</g>
<!-- n17&#45;&gt;n11 -->
<g id="edge20" class="edge"><title>n17&#45;&gt;n11</title>
<path fill="none" stroke="black" d="M899.565,-661.026C909.372,-598.031 927.33,-433.52 872,-314 866.663,-302.472 858.63,-291.827 849.756,-282.434"/>
<polygon fill="black" stroke="black" points="852.042,-279.77 842.494,-275.176 847.093,-284.721 852.042,-279.77"/>
</g>
<!-- n18 -->
<g id="node18" class="node"><title>n18</title>
<g id="a_node18"><a xlink:title="[[C]]:&#45;1&#45;1">
<ellipse fill="none" stroke="black" cx="100" cy="-912" rx="70.5656" ry="37.4533"/>
<text text-anchor="middle" x="100" y="-923.3" font-family="Times,serif" font-size="14.00">Node18</text>
<text text-anchor="start" x="58" y="-908.3" font-family="Times,serif" font-size="14.00">input = {}</text>
<text text-anchor="middle" x="100" y="-893.3" font-family="Times,serif" font-size="14.00">selectindex = 1</text>
</a>
</g>
</g>
<!-- n18&#45;&gt;n12 -->
<g id="edge21" class="edge"><title>n18&#45;&gt;n12</title>
<path fill="none" stroke="black" d="M98.0021,-874.372C97.3482,-862.384 96.6226,-849.08 95.9707,-837.129"/>
<polygon fill="black" stroke="black" points="99.46,-836.837 95.4205,-827.042 92.4704,-837.218 99.46,-836.837"/>
</g>
<!-- n19 -->
<g id="node19" class="node"><title>n19</title>
<g id="a_node19"><a xlink:title="[[C]]:&#45;1&#45;2">
<ellipse fill="none" stroke="black" cx="282" cy="-912" rx="70.5656" ry="37.4533"/>
<text text-anchor="middle" x="282" y="-923.3" font-family="Times,serif" font-size="14.00">Node19</text>
<text text-anchor="start" x="240" y="-908.3" font-family="Times,serif" font-size="14.00">input = {}</text>
<text text-anchor="middle" x="282" y="-893.3" font-family="Times,serif" font-size="14.00">selectindex = 2</text>
</a>
</g>
</g>
<!-- n19&#45;&gt;n13 -->
<g id="edge22" class="edge"><title>n19&#45;&gt;n13</title>
<path fill="none" stroke="black" d="M287.994,-874.372C289.955,-862.384 292.132,-849.08 294.088,-837.129"/>
<polygon fill="black" stroke="black" points="297.578,-837.476 295.739,-827.042 290.669,-836.346 297.578,-837.476"/>
</g>
<!-- n20 -->
<g id="node20" class="node"><title>n20</title>
<g id="a_node20"><a xlink:title="[[C]]:&#45;1&#45;3">
<ellipse fill="none" stroke="black" cx="441" cy="-912" rx="70.5656" ry="37.4533"/>
<text text-anchor="middle" x="441" y="-923.3" font-family="Times,serif" font-size="14.00">Node20</text>
<text text-anchor="start" x="399" y="-908.3" font-family="Times,serif" font-size="14.00">input = {}</text>
<text text-anchor="middle" x="441" y="-893.3" font-family="Times,serif" font-size="14.00">selectindex = 3</text>
</a>
</g>
</g>
<!-- n20&#45;&gt;n14 -->
<g id="edge23" class="edge"><title>n20&#45;&gt;n14</title>
<path fill="none" stroke="black" d="M440.009,-874.341C438.892,-832.99 437.086,-766.164 435.975,-725.061"/>
<polygon fill="black" stroke="black" points="439.47,-724.847 435.701,-714.945 432.473,-725.036 439.47,-724.847"/>
</g>
<!-- n21 -->
<g id="node21" class="node"><title>n21</title>
<g id="a_node21"><a xlink:title="[[C]]:&#45;1&#45;4">
<ellipse fill="none" stroke="black" cx="600" cy="-912" rx="70.5656" ry="37.4533"/>
<text text-anchor="middle" x="600" y="-923.3" font-family="Times,serif" font-size="14.00">Node21</text>
<text text-anchor="start" x="558" y="-908.3" font-family="Times,serif" font-size="14.00">input = {}</text>
<text text-anchor="middle" x="600" y="-893.3" font-family="Times,serif" font-size="14.00">selectindex = 4</text>
</a>
</g>
</g>
<!-- n21&#45;&gt;n15 -->
<g id="edge24" class="edge"><title>n21&#45;&gt;n15</title>
<path fill="none" stroke="black" d="M596.484,-874.301C590.317,-809.93 577.622,-677.433 571.48,-613.327"/>
<polygon fill="black" stroke="black" points="574.956,-612.9 570.518,-603.28 567.988,-613.568 574.956,-612.9"/>
</g>
<!-- n22 -->
<g id="node22" class="node"><title>n22</title>
<g id="a_node22"><a xlink:title="[[C]]:&#45;1&#45;5">
<ellipse fill="none" stroke="black" cx="764" cy="-912" rx="70.5656" ry="37.4533"/>
<text text-anchor="middle" x="764" y="-923.3" font-family="Times,serif" font-size="14.00">Node22</text>
<text text-anchor="start" x="722" y="-908.3" font-family="Times,serif" font-size="14.00">input = {}</text>
<text text-anchor="middle" x="764" y="-893.3" font-family="Times,serif" font-size="14.00">selectindex = 5</text>
</a>
</g>
</g>
<!-- n22&#45;&gt;n16 -->
<g id="edge25" class="edge"><title>n22&#45;&gt;n16</title>
<path fill="none" stroke="black" d="M765.099,-874.301C767.026,-809.93 770.993,-677.433 772.912,-613.327"/>
<polygon fill="black" stroke="black" points="776.412,-613.38 773.213,-603.28 769.415,-613.17 776.412,-613.38"/>
</g>
<!-- n23 -->
<g id="node23" class="node"><title>n23</title>
<g id="a_node23"><a xlink:title="[[C]]:&#45;1&#45;6">
<ellipse fill="none" stroke="black" cx="875" cy="-800" rx="70.5656" ry="37.4533"/>
<text text-anchor="middle" x="875" y="-811.3" font-family="Times,serif" font-size="14.00">Node23</text>
<text text-anchor="start" x="833" y="-796.3" font-family="Times,serif" font-size="14.00">input = {}</text>
<text text-anchor="middle" x="875" y="-781.3" font-family="Times,serif" font-size="14.00">selectindex = 6</text>
</a>
</g>
</g>
<!-- n23&#45;&gt;n17 -->
<g id="edge26" class="edge"><title>n23&#45;&gt;n17</title>
<path fill="none" stroke="black" d="M881.604,-762.677C883.804,-750.577 886.253,-737.108 888.449,-725.03"/>
<polygon fill="black" stroke="black" points="891.956,-725.308 890.301,-714.843 885.069,-724.056 891.956,-725.308"/>
</g>
<!-- n24 -->
<g id="node24" class="node"><title>n24</title>
<g id="a_node24"><a xlink:title="[[C]]:&#45;1&#45;mnode">
<ellipse fill="none" stroke="black" cx="520" cy="-1013" rx="80.415" ry="26.7407"/>
<text text-anchor="middle" x="520" y="-1016.8" font-family="Times,serif" font-size="14.00">Node24</text>
<text text-anchor="middle" x="520" y="-1001.8" font-family="Times,serif" font-size="14.00">nSplitOutputs = 6</text>
</a>
</g>
</g>
<!-- n24&#45;&gt;n18 -->
<g id="edge27" class="edge"><title>n24&#45;&gt;n18</title>
<path fill="none" stroke="black" d="M447.585,-1001.18C382.643,-990.693 285.071,-973.014 202,-950 190.039,-946.686 177.479,-942.627 165.419,-938.426"/>
<polygon fill="black" stroke="black" points="166.471,-935.086 155.877,-935.038 164.129,-941.683 166.471,-935.086"/>
</g>
<!-- n24&#45;&gt;n19 -->
<g id="edge28" class="edge"><title>n24&#45;&gt;n19</title>
<path fill="none" stroke="black" d="M467.369,-992.48C436.229,-980.682 396.13,-965.056 361,-950 355.153,-947.494 349.099,-944.815 343.062,-942.086"/>
<polygon fill="black" stroke="black" points="344.173,-938.746 333.622,-937.775 341.265,-945.113 344.173,-938.746"/>
</g>
<!-- n24&#45;&gt;n20 -->
<g id="edge29" class="edge"><title>n24&#45;&gt;n20</title>
<path fill="none" stroke="black" d="M499.861,-986.762C492.062,-976.989 482.926,-965.54 474.209,-954.616"/>
<polygon fill="black" stroke="black" points="476.934,-952.42 467.961,-946.787 471.463,-956.786 476.934,-952.42"/>
</g>
<!-- n24&#45;&gt;n21 -->
<g id="edge30" class="edge"><title>n24&#45;&gt;n21</title>
<path fill="none" stroke="black" d="M540.394,-986.762C548.292,-976.989 557.544,-965.54 566.371,-954.616"/>
<polygon fill="black" stroke="black" points="569.135,-956.765 572.698,-946.787 563.69,-952.365 569.135,-956.765"/>
</g>
<!-- n24&#45;&gt;n22 -->
<g id="edge31" class="edge"><title>n24&#45;&gt;n22</title>
<path fill="none" stroke="black" d="M571.759,-992.399C602.947,-980.444 643.392,-964.686 679,-950 686.218,-947.023 693.754,-943.845 701.227,-940.65"/>
<polygon fill="black" stroke="black" points="702.826,-943.772 710.63,-936.607 700.061,-937.342 702.826,-943.772"/>
</g>
<!-- n24&#45;&gt;n23 -->
<g id="edge32" class="edge"><title>n24&#45;&gt;n23</title>
<path fill="none" stroke="black" d="M598.374,-1006.75C682.61,-999.47 809.021,-983.243 843,-950 869.793,-923.788 876.732,-880.957 877.585,-847.928"/>
<polygon fill="black" stroke="black" points="881.088,-847.609 877.666,-837.582 874.088,-847.554 881.088,-847.609"/>
</g>
<!-- n25 -->
<g id="node25" class="node"><title>n25</title>
<g id="a_node25"><a xlink:title="[[C]]:&#45;1">
<ellipse fill="none" stroke="black" cx="520" cy="-1103" rx="51.99" ry="26.7407"/>
<text text-anchor="middle" x="520" y="-1106.8" font-family="Times,serif" font-size="14.00">Node25</text>
<text text-anchor="middle" x="520" y="-1091.8" font-family="Times,serif" font-size="14.00">input = {}</text>
</a>
</g>
</g>
<!-- n25&#45;&gt;n24 -->
<g id="edge33" class="edge"><title>n25&#45;&gt;n24</title>
<path fill="none" stroke="black" d="M520,-1076.07C520,-1068 520,-1058.94 520,-1050.3"/>
<polygon fill="black" stroke="black" points="523.5,-1050.05 520,-1040.05 516.5,-1050.05 523.5,-1050.05"/>
</g>
</g>
</svg>
